<?xml version="1.0" encoding="UTF-8" standalone="no"?>
<!-- Created with Inkscape (http://www.inkscape.org/) -->

<svg
   width="210mm"
   height="297mm"
   viewBox="0 0 210 297"
   version="1.1"
   id="svg1"
   inkscape:version="1.3 (0e150ed6c4, 2023-07-21)"
   sodipodi:docname="icon.svg"
   xmlns:inkscape="http://www.inkscape.org/namespaces/inkscape"
   xmlns:sodipodi="http://sodipodi.sourceforge.net/DTD/sodipodi-0.dtd"
   xmlns="http://www.w3.org/2000/svg"
   xmlns:svg="http://www.w3.org/2000/svg">
  <sodipodi:namedview
     id="namedview1"
     pagecolor="#ffffff"
     bordercolor="#666666"
     borderopacity="1.0"
     inkscape:showpageshadow="2"
     inkscape:pageopacity="0.0"
     inkscape:pagecheckerboard="0"
     inkscape:deskcolor="#d1d1d1"
     inkscape:document-units="mm"
     inkscape:zoom="0.74564394"
     inkscape:cx="396.30175"
     inkscape:cy="561.25984"
     inkscape:window-width="1920"
     inkscape:window-height="1051"
     inkscape:window-x="-9"
     inkscape:window-y="-9"
     inkscape:window-maximized="1"
     inkscape:current-layer="layer1" />
  <defs
     id="defs1">
    <clipPath
       clipPathUnits="userSpaceOnUse"
       id="clipPath1">
      <g
         id="g5">
        <rect
           x="36.728828"
           y="55.692337"
           width="118.00417"
           height="120.38541"
           id="rect5"
           style="stroke-width:0.264583" />
      </g>
    </clipPath>
    <clipPath
       clipPathUnits="userSpaceOnUse"
       id="clipPath5">
      <g
         id="g6">
        <rect
           x="36.728828"
           y="55.692337"
           width="118.00417"
           height="120.38541"
           id="rect6"
           style="stroke-width:0.264583" />
      </g>
    </clipPath>
    <clipPath
       clipPathUnits="userSpaceOnUse"
       id="clipPath6">
      <g
         id="g7">
        <rect
           x="36.728828"
           y="55.692337"
           width="118.00417"
           height="120.38541"
           id="rect7"
           style="stroke-width:0.264583" />
      </g>
    </clipPath>
    <clipPath
       clipPathUnits="userSpaceOnUse"
       id="clipPath7">
      <g
         id="g8">
        <rect
           x="36.728828"
           y="55.692337"
           width="118.00417"
           height="120.38541"
           id="rect8"
           style="stroke-width:0.264583" />
      </g>
    </clipPath>
    <clipPath
       clipPathUnits="userSpaceOnUse"
       id="clipPath8">
      <g
         id="g9">
        <rect
           x="36.728828"
           y="55.692337"
           width="118.00417"
           height="120.38541"
           id="rect9"
           style="stroke-width:0.264583" />
      </g>
    </clipPath>
    <clipPath
       clipPathUnits="userSpaceOnUse"
       id="clipPath9">
      <g
         id="g10">
        <rect
           x="36.728828"
           y="55.692337"
           width="118.00417"
           height="120.38541"
           id="rect10"
           style="stroke-width:0.264583" />
      </g>
    </clipPath>
  </defs>
  <g
     inkscape:label="Layer 1"
     inkscape:groupmode="layer"
     id="layer1">
    <rect
       x="44.930912"
       y="66.80484"
       width="87.841667"
       height="92.339584"
       stroke="#172c51"
       stroke-width="0.440973"
       stroke-miterlimit="8"
       fill="#d4a75f"
       id="rect2"
       clip-path="url(#clipPath9)" />
    <rect
       x="56.572578"
       y="55.956921"
       width="61.912498"
       height="29.104166"
       stroke="#172c51"
       stroke-width="0.440973"
       stroke-miterlimit="8"
       fill="#afabab"
       id="rect3"
       clip-path="url(#clipPath8)" />
    <rect
       x="36.993412"
       y="95.644424"
       width="81.491669"
       height="74.347916"
       stroke="#172c51"
       stroke-width="0.440973"
       stroke-miterlimit="8"
       fill="#f2f2f2"
       id="rect4"
       clip-path="url(#clipPath7)" />
    <path
       d="m 101.94095,116.67165 c 1.81504,0 3.38375,0.19447 4.70614,0.58341 1.32239,0.38894 2.41141,0.81677 3.26708,1.28349 l -1.75022,4.78393 c -0.75195,-0.38893 -1.5883,-0.73263 -2.50878,-1.03081 -0.92049,-0.29819 -2.02883,-0.44715 -3.32529,-0.44715 -1.45203,0 -2.49581,0.20082 -3.131074,0.60272 -0.635265,0.4019 -0.952765,1.01785 -0.952765,1.84759 0,0.49265 0.116681,0.90752 0.350044,1.2446 0.233362,0.33708 0.563827,0.64161 0.991658,0.91387 0.427827,0.27225 0.920487,0.51858 1.477967,0.73898 0.55747,0.2204 1.17342,0.44741 1.84758,0.68077 1.40018,0.51859 2.61885,1.03055 3.65601,1.53617 1.03717,0.50562 1.89918,1.09564 2.58631,1.7698 0.68712,0.67416 1.19935,1.465 1.53643,2.37252 0.33708,0.90752 0.50562,2.00951 0.50562,3.30597 0,2.51513 -0.88159,4.46616 -2.64478,5.85338 -1.76318,1.38721 -4.42092,2.08094 -7.97321,2.08094 -1.192745,0 -2.268806,-0.0714 -3.228185,-0.21404 -0.959379,-0.14262 -1.808692,-0.3175 -2.547673,-0.52494 -0.738981,-0.20743 -1.374246,-0.42783 -1.905794,-0.66119 -0.531548,-0.23336 -0.978693,-0.45376 -1.341702,-0.6612 l 1.711325,-4.82282 c 0.803804,0.4408 1.795463,0.83608 2.97524,1.18613 1.179777,0.35004 2.62546,0.52519 4.336789,0.52519 0.85566,0 1.5621,-0.0714 2.11957,-0.21404 0.55748,-0.14261 1.00489,-0.33708 1.34197,-0.58341 0.33708,-0.24633 0.57044,-0.5379 0.70009,-0.87498 0.12964,-0.33708 0.19447,-0.71305 0.19447,-1.12792 0,-0.88159 -0.41487,-1.61422 -1.2446,-2.19762 -0.82974,-0.58341 -2.25584,-1.21206 -4.278316,-1.88622 -0.881592,-0.31115 -1.763184,-0.66781 -2.644775,-1.06971 -0.881592,-0.4019 -1.672431,-0.90752 -2.372519,-1.51686 -0.700087,-0.60933 -1.270529,-1.34831 -1.711325,-2.21694 -0.440796,-0.86863 -0.661194,-1.92511 -0.661194,-3.16971 0,-1.2446 0.233363,-2.36617 0.700088,-3.36444 0.466725,-0.99827 1.127919,-1.84732 1.983581,-2.54741 0.855662,-0.70009 1.892829,-1.23825 3.1115,-1.61422 1.218671,-0.37597 2.59292,-0.56383 4.12274,-0.56383 z m -43.127085,0 c 1.815041,0 3.383756,0.19447 4.706143,0.58341 1.322388,0.38894 2.411413,0.81677 3.267075,1.28349 l -1.750218,4.78393 c -0.751946,-0.38893 -1.588294,-0.73263 -2.50878,-1.03081 -0.920485,-0.29819 -2.028825,-0.44715 -3.325283,-0.44715 -1.452033,0 -2.495814,0.20082 -3.131079,0.60272 -0.635265,0.4019 -0.952765,1.01785 -0.952765,1.84759 0,0.49265 0.116682,0.90752 0.350044,1.2446 0.233363,0.33708 0.563827,0.64161 0.991658,0.91387 0.427832,0.27225 0.920486,0.51858 1.477963,0.73898 0.557477,0.2204 1.173427,0.44741 1.847585,0.68077 1.400175,0.51859 2.618846,1.03055 3.656013,1.53617 1.037166,0.50562 1.899179,1.09564 2.586302,1.7698 0.343694,0.33708 0.643467,0.70326 0.899319,1.09882 l 0.405606,0.81068 -0.08282,-0.7112 c -0.03969,-0.52652 -0.05953,-1.06865 -0.05953,-1.62613 0,-2.25584 0.350044,-4.25238 1.050131,-5.98964 0.700088,-1.73725 1.659467,-3.20886 2.878138,-4.41457 1.218671,-1.20571 2.651125,-2.11958 4.297627,-2.74188 1.646502,-0.6223 3.403335,-0.93345 5.270235,-0.93345 1.270529,0 2.417763,0.0841 3.441965,0.25268 1.024202,0.16854 1.905793,0.36301 2.644775,0.58341 0.738981,0.22039 1.348316,0.44741 1.828006,0.68077 0.479689,0.23336 0.823383,0.41487 1.030816,0.54451 l -1.750218,4.86172 c -0.829734,-0.4408 -1.782763,-0.82338 -2.858823,-1.1475 -1.076061,-0.32411 -2.249223,-0.48604 -3.519752,-0.48604 -2.826279,0 -4.868333,0.78423 -6.125898,2.35294 -1.257565,1.56872 -1.886215,3.71449 -1.886215,6.43705 0,1.32239 0.155575,2.52148 0.466725,3.59754 0.31115,1.07606 0.777875,2.00316 1.400175,2.78103 0.6223,0.77788 1.400175,1.3806 2.333625,1.80843 0.93345,0.42783 2.022475,0.64188 3.267075,0.64188 0.674159,0 1.25095,-0.013 1.73064,-0.0389 0.479689,-0.0259 0.901171,-0.0778 1.264179,-0.15558 v -9.37339 h 6.067425 v 13.34055 c -0.726017,0.28523 -1.892829,0.58976 -3.500437,0.91388 -1.607609,0.32411 -3.59119,0.4863 -5.950744,0.4863 -2.022475,0 -3.857096,-0.31115 -5.503598,-0.93345 -1.646502,-0.6223 -3.053027,-1.52982 -4.21984,-2.72256 -1.166812,-1.19274 -2.067983,-2.65774 -2.703247,-4.395 l -0.08837,-0.28575 0.01508,0.44133 c 0,2.51513 -0.881592,4.46616 -2.644775,5.85338 -1.763183,1.38721 -4.420923,2.08094 -7.973219,2.08094 -1.192741,0 -2.268802,-0.0714 -3.228181,-0.21404 -0.959379,-0.14262 -1.808691,-0.3175 -2.547673,-0.52494 -0.738981,-0.20743 -1.374246,-0.42783 -1.905793,-0.66119 -0.531548,-0.23336 -0.978694,-0.45376 -1.341702,-0.6612 l 1.711324,-4.82282 c 0.803805,0.4408 1.795463,0.83608 2.97524,1.18613 1.179777,0.35004 2.62546,0.52519 4.336785,0.52519 0.855663,0 1.5621,-0.0714 2.119577,-0.21404 0.557478,-0.14261 1.004888,-0.33708 1.341967,-0.58341 0.337079,-0.24633 0.570442,-0.5379 0.700088,-0.87498 0.129645,-0.33708 0.194468,-0.71305 0.194468,-1.12792 0,-0.88159 -0.414866,-1.61422 -1.2446,-2.19762 -0.829733,-0.58341 -2.255837,-1.21206 -4.278312,-1.88622 -0.881592,-0.31115 -1.763183,-0.66781 -2.644775,-1.06971 -0.881592,-0.4019 -1.672431,-0.90752 -2.372519,-1.51686 -0.700087,-0.60933 -1.270529,-1.34831 -1.711325,-2.21694 -0.440796,-0.86863 -0.661193,-1.92511 -0.661193,-3.16971 0,-1.2446 0.233362,-2.36617 0.700087,-3.36444 0.466725,-0.99827 1.127919,-1.84732 1.983581,-2.54741 0.855663,-0.70009 1.892829,-1.23825 3.1115,-1.61422 1.218671,-0.37597 2.592917,-0.56383 4.122738,-0.56383 z"
       stroke="#000000"
       stroke-width="0.79375"
       stroke-linejoin="round"
       stroke-miterlimit="10"
       fill-rule="evenodd"
       id="path4"
       clip-path="url(#clipPath6)" />
    <text
       fill="#000000"
       fill-opacity="0"
       font-family="Arial, Arial_MSFontService, sans-serif"
       font-size="28.1202px"
       x="48.42923"
       y="141.27684"
       id="text4"
       style="stroke-width:0.264583">SGS</text>
    <path
       d="m 134.52974,117.88351 -10.26282,19.01499 -4.04227,-6.3401 -7.04171,24.23688 0.6964,-0.0999 -0.75092,2.33125 c -0.19319,0.84481 -0.31143,1.7072 -0.34895,2.5826 -0.39965,9.33679 8.54884,16.59864 19.98695,16.21961 11.43814,-0.37878 21.03464,-8.25476 21.4343,-17.59155 l -0.19086,-2.35552 0.44831,0.0763 -1.44323,-24.32578 -7.8225,8.88747 z"
       stroke="#ffffff"
       stroke-width="0.440973"
       stroke-miterlimit="8"
       fill="#ff0000"
       fill-rule="evenodd"
       id="path5"
       clip-path="url(#clipPath5)" />
    <path
       d="m 133.9775,135.39712 -7.60922,12.85392 -2.88595,-4.22584 -5.31097,16.33536 0.50679,-0.0727 -0.56445,1.57187 c -0.14697,0.56886 -0.23991,1.14913 -0.27424,1.73733 -0.36541,6.27431 6.07785,11.07976 14.39121,10.73341 8.31342,-0.34636 15.34904,-5.71361 15.71447,-11.98771 l -0.11975,-1.58068 0.32512,0.0477 -0.85308,-16.32687 -5.75487,6.03217 z"
       fill="#ffc000"
       fill-rule="evenodd"
       id="path6"
       style="stroke-width:0.264583"
       clip-path="url(#clipPath1)" />
  </g>
</svg>
